<?xml version="1.0" encoding="UTF-8"?>
<!DOCTYPE svg PUBLIC "-//W3C//DTD SVG 1.1//EN" "http://www.w3.org/Graphics/SVG/1.1/DTD/svg11.dtd">
<svg xmlns="http://www.w3.org/2000/svg" xmlns:xlink="http://www.w3.org/1999/xlink" version="1.1" width="736px" height="736px" viewBox="-0.5 -0.5 736 736"><defs/><g><g data-cell-id="0"><g data-cell-id="1"><g data-cell-id="_36KKs7gGeN7UvDyYJys-1"><g><rect x="-32.43" y="247.43" width="800" height="240" fill="#2b92e0" stroke="none" transform="rotate(-45,367.57,367.43)" pointer-events="all"/></g></g><g data-cell-id="_36KKs7gGeN7UvDyYJys-2"><g><rect x="50" y="515" width="40" height="120" fill="#e17a2a" stroke="none" transform="rotate(-45,70,575)" pointer-events="all"/></g></g><g data-cell-id="_36KKs7gGeN7UvDyYJys-10"><g><rect x="80" y="475" width="40" height="60" fill="#31deb9" stroke="none" transform="rotate(315,100,505)" pointer-events="all"/></g></g><g data-cell-id="_36KKs7gGeN7UvDyYJys-11"><g><rect x="130" y="425" width="40" height="60" fill="#31deb9" stroke="none" transform="rotate(315,150,455)" pointer-events="all"/></g></g><g data-cell-id="_36KKs7gGeN7UvDyYJys-12"><g><rect x="180" y="375" width="40" height="60" fill="#31deb9" stroke="none" transform="rotate(315,200,405)" pointer-events="all"/></g></g><g data-cell-id="_36KKs7gGeN7UvDyYJys-13"><g><rect x="230" y="325" width="40" height="60" fill="#31deb9" stroke="none" transform="rotate(315,250,355)" pointer-events="all"/></g></g><g data-cell-id="g-rsbQdkPr0Xx3ncaePd-2"><g><rect x="300" y="265" width="40" height="120" fill="#e17a2a" stroke="none" transform="rotate(315,320,325)" pointer-events="all"/></g></g><g data-cell-id="g-rsbQdkPr0Xx3ncaePd-3"><g><rect x="330" y="225" width="40" height="60" fill="#31deb9" stroke="none" transform="rotate(315,350,255)" pointer-events="all"/></g></g><g data-cell-id="g-rsbQdkPr0Xx3ncaePd-4"><g><rect x="380" y="175" width="40" height="60" fill="#31deb9" stroke="none" transform="rotate(315,400,205)" pointer-events="all"/></g></g><g data-cell-id="g-rsbQdkPr0Xx3ncaePd-5"><g><rect x="430" y="125" width="40" height="60" fill="#31deb9" stroke="none" transform="rotate(315,450,155)" pointer-events="all"/></g></g><g data-cell-id="g-rsbQdkPr0Xx3ncaePd-6"><g><rect x="480" y="75" width="40" height="60" fill="#31deb9" stroke="none" transform="rotate(315,500,105)" pointer-events="all"/></g></g><g data-cell-id="g-rsbQdkPr0Xx3ncaePd-7"><g><rect x="550" y="15" width="40" height="120" fill="#e17a2a" stroke="none" transform="rotate(315,570,75)" pointer-events="all"/></g></g></g></g></g></svg>